<svg xmlns="http://www.w3.org/2000/svg" width="114.954" height="93.891" viewBox="0 0 114.954 93.891"><defs><style>.a{fill:#fff;opacity:0.2;}</style></defs><path class="a" d="M38.913-174.93a22.676,22.676,0,0,1-16.422-6.6,21.377,21.377,0,0,1-6.783-15.886,32.351,32.351,0,0,1,1.25-8.747,80.12,80.12,0,0,1,4.819-11.96L45.7-268.821h21.42l-14.28,53.55q9.282,7.14,9.282,17.85a21.118,21.118,0,0,1-6.962,15.886A22.859,22.859,0,0,1,38.913-174.93Zm63.546,0a22.676,22.676,0,0,1-16.422-6.6,21.377,21.377,0,0,1-6.783-15.886,32.351,32.351,0,0,1,1.25-8.747,80.121,80.121,0,0,1,4.819-11.96l23.919-50.694h21.42l-14.28,53.55q9.282,7.14,9.282,17.85a21.118,21.118,0,0,1-6.961,15.886A22.859,22.859,0,0,1,102.459-174.93Z" transform="translate(-15.708 268.821)"/></svg>